<?xml version="1.0" encoding="UTF-8" standalone="no"?>
<svg
   xmlns:dc="http://purl.org/dc/elements/1.1/"
   xmlns:cc="http://creativecommons.org/ns#"
   xmlns:rdf="http://www.w3.org/1999/02/22-rdf-syntax-ns#"
   xmlns:svg="http://www.w3.org/2000/svg"
   xmlns="http://www.w3.org/2000/svg"
   xmlns:sodipodi="http://sodipodi.sourceforge.net/DTD/sodipodi-0.dtd"
   xmlns:inkscape="http://www.inkscape.org/namespaces/inkscape"
   sodipodi:docname="copy.svg"
   inkscape:version="1.0rc1 (09960d6, 2020-04-09)"
   id="svg8"
   version="1.1"
   viewBox="0 0 41.249554 56.678066"
   height="56.678066mm"
   width="41.249554mm">
  <defs
     id="defs2" />
  <sodipodi:namedview
     inkscape:window-maximized="1"
     inkscape:window-y="25"
     inkscape:window-x="1920"
     inkscape:window-height="1178"
     inkscape:window-width="2048"
     fit-margin-bottom="0"
     fit-margin-right="0"
     fit-margin-left="0"
     fit-margin-top="0"
     inkscape:snap-page="true"
     showgrid="false"
     inkscape:document-rotation="0"
     inkscape:current-layer="layer1"
     inkscape:document-units="mm"
     inkscape:cy="86.511508"
     inkscape:cx="253.93789"
     inkscape:zoom="1.3258252"
     inkscape:pageshadow="2"
     inkscape:pageopacity="0.0"
     borderopacity="1.0"
     bordercolor="#666666"
     pagecolor="#ffffff"
     id="base" />
  <metadata
     id="metadata5">
    <rdf:RDF>
      <cc:Work
         rdf:about="">
        <dc:format>image/svg+xml</dc:format>
        <dc:type
           rdf:resource="http://purl.org/dc/dcmitype/StillImage" />
        <dc:title></dc:title>
      </cc:Work>
    </rdf:RDF>
  </metadata>
  <g
     transform="translate(-16.557999,-1.1179137)"
     id="layer1"
     inkscape:groupmode="layer"
     inkscape:label="Layer 1">
    <path
       inkscape:connector-curvature="0"
       id="rect14-1"
       d="m 25.478556,2.1179137 h 29.828998 c 0.831,0 1.5,0.669 1.5,1.5 V 49.510419 c 0,0.831 -0.669,1.5 -1.5,1.5 H 25.478556 c -0.831,0 -1.5,-0.669 -1.5,-1.5 V 3.6179137 c 0,-0.831 0.669,-1.5 1.5,-1.5 z"
       style="opacity:0.89;fill:#ffffff;fill-opacity:1;stroke:#808080;stroke-width:2;stroke-miterlimit:4;stroke-dasharray:none;stroke-opacity:1" />
    <path
       inkscape:connector-curvature="0"
       id="rect14"
       d="m 20.184044,6.6498461 h 29.828998 c 0.831,0 1.5,0.669 1.5,1.5 V 54.042352 c 0,0.831 -0.669,1.5 -1.5,1.5 H 20.184044 c -0.831,0 -1.5,-0.669 -1.5,-1.5 V 8.1498461 c 0,-0.831 0.669,-1.5 1.5,-1.5 z"
       style="opacity:1;fill:#ffffff;fill-opacity:1;stroke:#ffffff;stroke-width:2;stroke-miterlimit:4;stroke-dasharray:none;stroke-opacity:1" />
    <path
       inkscape:connector-curvature="0"
       id="rect14-8"
       d="m 19.057999,7.9034734 h 29.828998 c 0.831,0 1.5,0.669 1.5,1.5 V 55.295979 c 0,0.831 -0.669,1.5 -1.5,1.5 H 19.057999 c -0.831,0 -1.5,-0.669 -1.5,-1.5 V 9.4034734 c 0,-0.831 0.669,-1.5 1.5,-1.5 z"
       style="opacity:1;fill:#ffffff;fill-opacity:1;stroke:#808080;stroke-width:2;stroke-miterlimit:4;stroke-dasharray:none;stroke-opacity:1" />
  </g>
</svg>
